<?xml version="1.0" encoding="UTF-8"?>
<svg id="logosandtypes_com" data-name="logosandtypes com" xmlns="http://www.w3.org/2000/svg" viewBox="0 0 150 150">
  <defs>
    <style>
      .cls-1 {
        fill: #f9a11b;
      }

      .cls-2 {
        fill: #f68d29;
      }

      .cls-3 {
        fill: #f05423;
      }

      .cls-4 {
        fill: none;
      }
    </style>
  </defs>
  <g id="Layer_3" data-name="Layer 3">
    <g id="Layer_3-2" data-name="Layer 3">
      <g id="Layer_2" data-name="Layer 2">
        <path id="Layer_3-3" data-name="Layer 3" class="cls-4" d="M0,0H150V150H0V0Z"/>
      </g>
    </g>
  </g>
  <circle class="cls-2" cx="55.84" cy="123.71" r="14.18"/>
  <path class="cls-2" d="M55.84,42.74c-7.83,0-14.18-6.35-14.18-14.18s6.35-14.18,14.18-14.18h47.63c7.83,0,14.18,6.35,14.18,14.18s-6.35,14.18-14.18,14.18H55.84Z"/>
  <path class="cls-2" d="M55.84,92.26c-7.83,0-14.18-6.35-14.18-14.18s6.35-14.18,14.18-14.18h36.08c7.83,0,14.18,6.35,14.18,14.18s-6.35,14.18-14.18,14.18H55.84Z"/>
  <path class="cls-1" d="M70.02,78.08c0,7.83-6.35,14.18-14.18,14.18s-14.18-6.35-14.18-14.18V28.56c0-7.83,6.35-14.18,14.18-14.18s14.18,6.35,14.18,14.18v49.52Z"/>
  <path class="cls-3" d="M55.84,42.74h14.18v-14.18c0-7.83-6.35-14.18-14.18-14.18s-14.18,6.35-14.18,14.18,6.35,14.18,14.18,14.18Z"/>
  <path class="cls-3" d="M70.02,78.08v-14.18h-14.18c-7.83,0-14.18,6.35-14.18,14.18s6.35,14.18,14.18,14.18,14.18-6.35,14.18-14.18Z"/>
</svg>